<svg width="30" height="30" viewBox="0 0 30 30" fill="none" xmlns="http://www.w3.org/2000/svg">
<path d="M26.25 6H3.75C3.25272 6 2.77581 6.19754 2.42417 6.54917C2.07254 6.90081 1.875 7.37772 1.875 7.875V22.875C1.875 23.3723 2.07254 23.8492 2.42417 24.2008C2.77581 24.5525 3.25272 24.75 3.75 24.75H26.25C26.7473 24.75 27.2242 24.5525 27.5758 24.2008C27.9275 23.8492 28.125 23.3723 28.125 22.875V7.875C28.125 7.37772 27.9275 6.90081 27.5758 6.54917C27.2242 6.19754 26.7473 6 26.25 6ZM24.1875 7.875L15 14.2312L5.8125 7.875H24.1875ZM3.75 22.875V8.72812L14.4656 16.1437C14.6226 16.2526 14.809 16.311 15 16.311C15.191 16.311 15.3774 16.2526 15.5344 16.1437L26.25 8.72812V22.875H3.75Z" fill="black"/>
</svg>